# xmcd
#
# Track frame offsets:
#	183
#	12300
#	30865
#	45568
#	54615
#	64085
#	71883
#	88203
#	99773
#	117703
#	130385
#	141185
#	151678
#	160785
#	176905
#	190005
#	200625
#	245585
#	269005
#	280478
#
# Disc length: 3903 seconds
#
# Revision: 0
# Processed by: cddbd v1.4PL0 Copyright (c) Steve Scherf et al.
# Submitted via: EasyCDDAExtractor 4.5.2.1
#
DISCID=290f3d14
DTITLE=Memphis Slim - The story
DYEAR=1900
DGENRE=
TTITLE0=Memphis Slim Story (Part1)
TTITLE1=The Blues And More Blues
TTITLE2=Three Minutes Boogie
TTITLE3=Pretending I'm Happy
TTITLE4=You Got A Lot Of Soul
TTITLE5=Fiddling Arround
TTITLE6=Disco Blues
TTITLE7=Walking Out Of My Live
TTITLE8=Memphis Slim Story (Part2)
TTITLE9=Blues Universal
TTITLE10=Chunkin
TTITLE11=Walk On
TTITLE12=Sweet As She Can Be
TTITLE13=Mama The Way You Look Tonight
TTITLE14=Lonely Night
TTITLE15=Memphis Slim Story (Part3)
TTITLE16=Everybody's Blues
TTITLE17=a - T.W.A. 3'02/b - Finale
TTITLE18=When I'm Gone
TTITLE19=Memphis Slim Story (Part4)
EXTD=
EXTT0=
EXTT1=
EXTT2=
EXTT3=
EXTT4=
EXTT5=
EXTT6=
EXTT7=
EXTT8=
EXTT9=
EXTT10=
EXTT11=
EXTT12=
EXTT13=
EXTT14=
EXTT15=
EXTT16=
EXTT17=
EXTT18=
EXTT19=
PLAYORDER=
